<svg version="1.0" xmlns="http://www.w3.org/2000/svg"
 width="702.000000pt" height="545.000000pt" viewBox="0 0 702.000000 545.000000"
 preserveAspectRatio="xMidYMid meet">
<g transform="translate(0.000000,545.000000) scale(0.100000,-0.100000)"
fill="#fff" stroke="none">
<path d="M430 5307 c-172 -59 -294 -185 -344 -356 -10 -34 -16 -92 -16 -150 0
-80 5 -110 29 -176 65 -184 1766 -4244 1798 -4293 61 -92 163 -165 282 -202
79 -25 224 -27 302 -4 120 35 234 119 296 217 16 24 177 402 358 840 182 438
333 797 336 797 4 0 154 -354 334 -787 181 -434 340 -808 354 -833 57 -101
185 -197 310 -234 72 -21 220 -21 292 0 141 42 263 142 323 267 45 93 1720
4126 1757 4232 24 66 29 96 29 176 0 58 -6 116 -16 150 -52 175 -188 311 -363
363 -72 21 -220 21 -292 0 -126 -37 -255 -138 -311 -242 -14 -26 -306 -722
-648 -1547 -342 -825 -623 -1501 -625 -1503 -1 -1 -284 676 -630 1505 -345
830 -639 1527 -652 1550 -61 105 -164 186 -292 230 -82 28 -229 31 -312 7
-175 -52 -311 -188 -363 -363 -21 -70 -21 -221 -1 -289 9 -28 132 -330 274
-671 l258 -619 -274 -658 c-150 -363 -276 -667 -281 -677 -6 -14 -178 390
-636 1490 -346 829 -640 1527 -653 1550 -61 105 -164 186 -292 230 -92 32
-239 32 -331 0z"/>
</g>
</svg>
